<?xml version="1.0" encoding="utf-8" standalone="no"?>
<!DOCTYPE svg PUBLIC "-//W3C//DTD SVG 1.1//EN"
  "http://www.w3.org/Graphics/SVG/1.1/DTD/svg11.dtd">
<svg xmlns:xlink="http://www.w3.org/1999/xlink" width="878.4pt" height="302.4pt" viewBox="0 0 878.4 302.4" xmlns="http://www.w3.org/2000/svg" version="1.1">
 <metadata>
  <rdf:RDF xmlns:dc="http://purl.org/dc/elements/1.1/" xmlns:cc="http://creativecommons.org/ns#" xmlns:rdf="http://www.w3.org/1999/02/22-rdf-syntax-ns#">
   <cc:Work>
    <dc:type rdf:resource="http://purl.org/dc/dcmitype/StillImage"/>
    <dc:date>2026-04-11T20:56:33.579116</dc:date>
    <dc:format>image/svg+xml</dc:format>
    <dc:creator>
     <cc:Agent>
      <dc:title>Matplotlib v3.7.2, https://matplotlib.org/</dc:title>
     </cc:Agent>
    </dc:creator>
   </cc:Work>
  </rdf:RDF>
 </metadata>
 <defs>
  <style type="text/css">*{stroke-linejoin: round; stroke-linecap: butt}</style>
 </defs>
 <g id="figure_1">
  <g id="patch_1">
   <path d="M 0 302.4 
L 878.4 302.4 
L 878.4 0 
L 0 0 
L 0 302.4 
z
" style="fill: none"/>
  </g>
  <g id="axes_1">
   <g id="line2d_1">
    <path d="M 46.472727 152.492407 
L 48.306066 150.229647 
L 50.40131 147.273103 
L 52.496553 143.940059 
L 54.853703 139.770575 
L 57.472758 134.665293 
L 60.353718 128.552304 
L 63.758489 120.792596 
L 68.472788 109.43308 
L 77.115669 88.519734 
L 80.52044 80.917908 
L 83.4014 75.031254 
L 85.75855 70.68753 
L 87.853794 67.244927 
L 89.949038 64.244748 
L 91.782376 62.016718 
L 93.353809 60.423467 
L 94.925242 59.138821 
L 96.234769 58.314298 
L 97.544297 57.721408 
L 98.853824 57.366867 
L 100.163351 57.256631 
L 101.472879 57.395869 
L 102.782406 57.788933 
L 104.091934 58.439343 
L 105.401461 59.349762 
L 106.710989 60.52198 
L 108.282421 62.275434 
L 109.853854 64.407009 
L 111.425287 66.914709 
L 113.258626 70.310469 
L 115.091964 74.203475 
L 117.187208 79.244948 
L 119.282452 84.89463 
L 121.639601 91.939934 
L 124.258656 100.564045 
L 127.139616 110.923702 
L 130.282482 123.126211 
L 133.949159 138.314779 
L 138.663458 158.859367 
L 150.187299 209.515902 
L 153.853976 224.431635 
L 156.996841 236.302086 
L 159.615896 245.400429 
L 161.973046 252.880943 
L 164.330195 259.620486 
L 166.425439 264.940439 
L 168.258777 269.047121 
L 170.092116 272.619724 
L 171.663548 275.243208 
L 173.234981 277.45183 
L 174.806414 279.238219 
L 176.115942 280.400356 
L 177.425469 281.263353 
L 178.734997 281.826048 
L 179.782618 282.059812 
L 180.83024 282.101558 
L 181.877862 281.952003 
L 182.925484 281.612249 
L 184.235012 280.922384 
L 185.544539 279.941406 
L 186.854067 278.673948 
L 188.163594 277.125534 
L 189.735027 274.905629 
L 191.30646 272.303025 
L 193.139798 268.802143 
L 194.973137 264.825361 
L 197.06838 259.734052 
L 199.42553 253.365175 
L 202.044585 245.576863 
L 204.925545 236.267289 
L 208.330316 224.462853 
L 212.782709 208.130315 
L 225.354173 161.464539 
L 228.758944 149.882287 
L 231.90181 139.966885 
L 234.520865 132.382365 
L 237.139919 125.492343 
L 239.497069 119.935422 
L 241.592313 115.538359 
L 243.687556 111.672022 
L 245.520895 108.735309 
L 247.354233 106.221342 
L 248.925666 104.404999 
L 250.497099 102.900884 
L 252.068532 101.707006 
L 253.639965 100.819688 
L 254.949492 100.310644 
L 256.25902 100.006893 
L 257.568547 99.903759 
L 258.878075 99.995844 
L 260.449507 100.355406 
L 262.02094 100.975485 
L 263.592373 101.843 
L 265.163806 102.943664 
L 266.997145 104.501847 
L 269.092388 106.611847 
L 271.187632 109.033004 
L 273.806687 112.429821 
L 276.687647 116.541028 
L 280.61623 122.562151 
L 290.044827 137.195865 
L 293.187693 141.59384 
L 295.806748 144.905331 
L 298.163897 147.550527 
L 300.259141 149.598587 
L 302.354385 151.333737 
L 304.187723 152.577805 
L 306.021062 153.553208 
L 307.8544 154.250506 
L 309.425833 154.621657 
L 310.997266 154.780847 
L 312.568699 154.72692 
L 314.140132 154.4602 
L 315.711564 153.982488 
L 317.282997 153.297036 
L 319.116336 152.241099 
L 320.949674 150.918637 
L 323.044918 149.096757 
L 325.140162 146.964959 
L 327.497311 144.228526 
L 330.116366 140.817617 
L 332.997326 136.690168 
L 336.664003 131.014265 
L 342.949735 120.762809 
L 348.187844 112.410921 
L 351.592616 107.406311 
L 354.473576 103.581586 
L 356.830725 100.801924 
L 358.925969 98.636301 
L 361.021213 96.78892 
L 362.854552 95.454322 
L 364.68789 94.399008 
L 366.259323 93.726777 
L 367.830756 93.276354 
L 369.402189 93.053341 
L 370.973622 93.061992 
L 372.545054 93.305188 
L 374.116487 93.78442 
L 375.68792 94.499777 
L 377.259353 95.449949 
L 379.092692 96.851576 
L 380.92603 98.562415 
L 382.759368 100.573308 
L 384.854612 103.223932 
L 386.949856 106.230288 
L 389.307005 110.006735 
L 391.92606 114.644691 
L 394.807021 120.210947 
L 398.211792 127.293039 
L 402.664185 137.111891 
L 413.926121 162.20793 
L 417.330892 169.148784 
L 420.211852 174.565341 
L 422.830907 179.048778 
L 425.188057 182.675933 
L 427.545206 185.879332 
L 429.64045 188.346806 
L 431.473788 190.198552 
L 433.307127 191.754415 
L 435.140465 193.008343 
L 436.711898 193.840119 
L 438.283331 194.446805 
L 439.854764 194.82915 
L 441.426197 194.989311 
L 442.99763 194.930841 
L 444.569062 194.658671 
L 446.140495 194.179076 
L 447.973834 193.367576 
L 449.807172 192.298335 
L 451.64051 190.987783 
L 453.735754 189.218374 
L 456.092904 186.918399 
L 458.711959 184.035453 
L 461.854824 180.219648 
L 466.045312 174.748196 
L 474.164382 164.077764 
L 477.307248 160.342053 
L 479.926303 157.550756 
L 482.283452 155.352529 
L 484.378696 153.688715 
L 486.212034 152.482052 
L 488.045373 151.527156 
L 489.878711 150.840095 
L 491.450144 150.47483 
L 493.021577 150.323659 
L 494.59301 150.392383 
L 496.164443 150.685356 
L 497.735876 151.205453 
L 499.307308 151.954031 
L 500.878741 152.930916 
L 502.71208 154.356783 
L 504.545418 156.085586 
L 506.378757 158.109058 
L 508.474 160.768067 
L 510.569244 163.776413 
L 512.926394 167.546434 
L 515.545448 172.163527 
L 518.688314 178.205124 
L 522.354991 185.772875 
L 528.902628 199.93705 
L 533.878832 210.468688 
L 537.283604 217.155278 
L 539.902658 221.848034 
L 542.259808 225.64679 
L 544.355052 228.628365 
L 546.18839 230.895039 
L 548.021728 232.812552 
L 549.593161 234.158204 
L 551.164594 235.212648 
L 552.474122 235.85877 
L 553.783649 236.285566 
L 555.093177 236.486384 
L 556.402704 236.455308 
L 557.712231 236.187187 
L 559.021759 235.677662 
L 560.331286 234.923188 
L 561.640814 233.921054 
L 562.950341 232.6694 
L 564.521774 230.83671 
L 566.093207 228.643271 
L 567.66464 226.09086 
L 569.497978 222.664277 
L 571.331316 218.762996 
L 573.42656 213.739028 
L 575.521804 208.134821 
L 577.878954 201.173005 
L 580.498008 192.680234 
L 583.378969 182.509726 
L 586.521835 170.563923 
L 590.188511 155.736756 
L 595.164716 134.617928 
L 605.117124 92.134281 
L 608.783801 77.504537 
L 611.926666 65.8175 
L 614.807627 55.975534 
L 617.164776 48.644734 
L 619.521925 42.039019 
L 621.617169 36.826955 
L 623.450508 32.807922 
L 625.283846 29.31832 
L 626.855279 26.763545 
L 628.426712 24.622537 
L 629.736239 23.160621 
L 631.045767 21.995877 
L 632.355294 21.131273 
L 633.664822 20.568833 
L 634.712444 20.33719 
L 635.760065 20.299745 
L 636.807687 20.456217 
L 637.855309 20.805933 
L 639.164837 21.513179 
L 640.474364 22.51777 
L 641.783892 23.815865 
L 643.093419 25.402704 
L 644.664852 27.68003 
L 646.236285 30.35353 
L 648.069623 33.955651 
L 649.902962 38.055177 
L 651.998205 43.314958 
L 654.355355 49.911519 
L 656.97441 58.002625 
L 659.85537 67.708089 
L 662.998236 79.087348 
L 666.926818 94.167025 
L 673.736361 121.387155 
L 679.760187 145.114848 
L 683.688769 159.691983 
L 686.831635 170.554974 
L 689.712595 179.738747 
L 692.33165 187.351245 
L 694.688799 193.543678 
L 696.784043 198.488928 
L 698.879287 202.883356 
L 700.712625 206.262397 
L 702.545964 209.197391 
L 704.379302 211.683133 
L 705.950735 213.454667 
L 707.522168 214.895401 
L 709.093601 216.007797 
L 710.403128 216.68694 
L 711.712656 217.144245 
L 713.022183 217.383805 
L 714.331711 217.410476 
L 715.641238 217.229854 
L 716.950765 216.848244 
L 718.522198 216.134889 
L 720.093631 215.155497 
L 721.665064 213.924612 
L 723.498402 212.191722 
L 725.331741 210.164659 
L 727.426985 207.524366 
L 729.784134 204.195104 
L 732.665094 199.704301 
L 736.069866 193.962495 
L 742.355597 182.814992 
L 747.331802 174.211185 
L 750.736573 168.781864 
L 753.355628 164.985872 
L 755.712777 161.915535 
L 758.069926 159.218487 
L 760.16517 157.164679 
L 761.998509 155.650732 
L 763.831847 154.413287 
L 765.665185 153.461221 
L 767.236618 152.877014 
L 768.808051 152.509231 
L 770.379484 152.358581 
L 771.950917 152.424275 
L 773.52235 152.704033 
L 775.093783 153.194116 
L 776.927121 154.024733 
L 778.76046 155.123943 
L 780.593798 156.478696 
L 782.689042 158.320059 
L 784.784286 160.448582 
L 787.141435 163.149125 
L 790.022395 166.822888 
L 793.427167 171.571185 
L 798.403371 178.966118 
L 804.951008 188.667506 
L 808.355779 193.315548 
L 811.23674 196.868213 
L 813.593889 199.444511 
L 815.689133 201.443165 
L 817.784377 203.135891 
L 819.617715 204.344721 
L 821.451053 205.282677 
L 823.022486 205.860623 
L 824.593919 206.222239 
L 826.165352 206.361591 
L 827.736785 206.274087 
L 829.308218 205.956508 
L 830.879651 205.407024 
L 831.927273 204.911597 
L 831.927273 204.911597 
" clip-path="url(#p7462b274c1)" style="fill: none; stroke: #8a2be2; stroke-width: 1.5; stroke-linecap: square"/>
   </g>
  </g>
 </g>
 <defs>
  <clipPath id="p7462b274c1">
   <rect x="7.2" y="7.2" width="864" height="288"/>
  </clipPath>
 </defs>
</svg>
