<?xml version="1.0" encoding="utf-8" standalone="no"?>
<!DOCTYPE svg PUBLIC "-//W3C//DTD SVG 1.1//EN"
  "http://www.w3.org/Graphics/SVG/1.1/DTD/svg11.dtd">
<svg xmlns:xlink="http://www.w3.org/1999/xlink" width="878.4pt" height="302.4pt" viewBox="0 0 878.4 302.4" xmlns="http://www.w3.org/2000/svg" version="1.1">
 <metadata>
  <rdf:RDF xmlns:dc="http://purl.org/dc/elements/1.1/" xmlns:cc="http://creativecommons.org/ns#" xmlns:rdf="http://www.w3.org/1999/02/22-rdf-syntax-ns#">
   <cc:Work>
    <dc:type rdf:resource="http://purl.org/dc/dcmitype/StillImage"/>
    <dc:date>2026-04-12T18:37:08.638287</dc:date>
    <dc:format>image/svg+xml</dc:format>
    <dc:creator>
     <cc:Agent>
      <dc:title>Matplotlib v3.7.2, https://matplotlib.org/</dc:title>
     </cc:Agent>
    </dc:creator>
   </cc:Work>
  </rdf:RDF>
 </metadata>
 <defs>
  <style type="text/css">*{stroke-linejoin: round; stroke-linecap: butt}</style>
 </defs>
 <g id="figure_1">
  <g id="patch_1">
   <path d="M 0 302.4 
L 878.4 302.4 
L 878.4 0 
L 0 0 
L 0 302.4 
z
" style="fill: none"/>
  </g>
  <g id="axes_1">
   <g id="line2d_1">
    <path d="M 46.472727 150.601396 
L 47.520349 144.108352 
L 48.829877 134.38578 
L 50.40131 120.863329 
L 56.16323 68.750287 
L 57.210852 61.63766 
L 58.258474 56.038701 
L 59.04419 52.991688 
L 59.568001 51.562813 
L 60.091812 50.644462 
L 60.615623 50.257299 
L 60.877529 50.268388 
L 61.139434 50.418373 
L 61.663245 51.140935 
L 62.187056 52.434288 
L 62.710867 54.303667 
L 63.496584 58.188993 
L 64.2823 63.357679 
L 65.329922 72.18118 
L 66.377544 83.078528 
L 67.687071 99.298014 
L 69.258504 121.85898 
L 71.615654 159.613462 
L 75.020425 214.118826 
L 76.591858 235.88946 
L 77.901385 251.146601 
L 78.949007 261.052546 
L 79.996629 268.668884 
L 80.782346 272.780281 
L 81.306157 274.733442 
L 81.829968 276.047538 
L 82.353779 276.719955 
L 82.615684 276.815928 
L 82.877589 276.752505 
L 83.139495 276.530596 
L 83.663306 275.616321 
L 84.187117 274.085746 
L 84.710928 271.955667 
L 85.496644 267.683022 
L 86.282361 262.195258 
L 87.329983 253.169611 
L 88.63951 239.554514 
L 90.210943 220.659808 
L 96.496675 141.375472 
L 97.806202 128.596695 
L 98.853824 120.094492 
L 99.901446 113.272283 
L 100.687162 109.305718 
L 101.472879 106.3372 
L 102.258595 104.357285 
L 102.782406 103.573628 
L 103.306217 103.20491 
L 103.830028 103.235389 
L 104.353839 103.646268 
L 104.87765 104.41592 
L 105.663367 106.189458 
L 106.449083 108.623857 
L 107.496705 112.722019 
L 108.806232 118.847368 
L 113.782437 143.335034 
L 114.830059 147.103011 
L 115.87768 149.968863 
L 116.663397 151.459161 
L 117.187208 152.121627 
L 117.711019 152.513358 
L 118.23483 152.632719 
L 118.758641 152.481084 
L 119.282452 152.062776 
L 119.806263 151.384994 
L 120.591979 149.904326 
L 121.377696 147.907445 
L 122.425318 144.541386 
L 123.734845 139.437149 
L 125.830089 130.098475 
L 128.187238 119.73876 
L 129.496766 114.887235 
L 130.544388 111.779113 
L 131.330104 109.995577 
L 132.11582 108.735205 
L 132.639631 108.203509 
L 133.163442 107.927452 
L 133.687253 107.911594 
L 134.211064 108.157791 
L 134.734875 108.665184 
L 135.258686 109.43021 
L 136.044403 111.046478 
L 136.830119 113.195924 
L 137.877741 116.813096 
L 139.187268 122.345348 
L 141.020607 131.370889 
L 144.687284 149.864871 
L 145.996811 155.294955 
L 147.044433 158.808297 
L 147.830149 160.870148 
L 148.615866 162.39351 
L 149.401582 163.349918 
L 149.925393 163.66474 
L 150.449204 163.71999 
L 150.973015 163.517751 
L 151.496826 163.062993 
L 152.020637 162.36355 
L 152.806354 160.87965 
L 153.59207 158.917199 
L 154.639692 155.662258 
L 155.949219 150.820023 
L 160.139707 134.443609 
L 161.187329 131.414941 
L 161.973046 129.723444 
L 162.758762 128.626959 
L 163.282573 128.26513 
L 163.806384 128.222262 
L 164.330195 128.515684 
L 164.854006 129.15989 
L 165.377817 130.166354 
L 166.163533 132.37253 
L 166.94925 135.42559 
L 167.734966 139.321968 
L 168.782588 145.789322 
L 169.83021 153.615468 
L 171.139737 165.067569 
L 172.973076 183.443272 
L 177.94928 235.116031 
L 179.258807 245.860304 
L 180.306429 252.733087 
L 181.092146 256.698745 
L 181.877862 259.532878 
L 182.401673 260.751644 
L 182.925484 261.409588 
L 183.18739 261.522912 
L 183.449295 261.490112 
L 183.711201 261.309731 
L 184.235012 260.501684 
L 184.758823 259.092296 
L 185.282634 257.079324 
L 186.06835 252.933806 
L 186.854067 247.460929 
L 187.901688 238.182776 
L 188.94931 226.798953 
L 190.258838 209.965206 
L 191.830271 186.716621 
L 194.449326 143.765069 
L 197.330286 97.072987 
L 198.901719 74.759196 
L 200.211246 58.993269 
L 201.258868 48.636312 
L 202.30649 40.523123 
L 203.092206 36.004995 
L 203.877923 32.875563 
L 204.401734 31.570249 
L 204.925545 30.889967 
L 205.18745 30.782921 
L 205.449356 30.830043 
L 205.711261 31.030081 
L 206.235072 31.882596 
L 206.758883 33.325294 
L 207.282694 35.339037 
L 208.068411 39.379228 
L 208.854127 44.559632 
L 209.901749 53.050953 
L 211.211276 65.789141 
L 213.044615 86.407318 
L 218.020819 144.450778 
L 219.592252 159.316401 
L 220.901779 169.366078 
L 221.949401 175.673512 
L 222.735118 179.341861 
L 223.520834 182.088539 
L 224.306551 183.923257 
L 224.830362 184.652536 
L 225.354173 185.000512 
L 225.877984 184.982526 
L 226.401795 184.616846 
L 226.925606 183.924446 
L 227.711322 182.325148 
L 228.497038 180.132204 
L 229.54466 176.454055 
L 230.854188 170.996641 
L 235.044675 152.761723 
L 236.092297 149.259051 
L 237.139919 146.562634 
L 237.925636 145.147642 
L 238.449447 144.515626 
L 238.973258 144.141801 
L 239.497069 144.030696 
L 240.02088 144.183885 
L 240.544691 144.600003 
L 241.068502 145.2748 
L 241.854218 146.755809 
L 242.639935 148.76713 
L 243.687556 152.189388 
L 244.997084 157.448461 
L 246.830422 166.009505 
L 249.973288 180.99031 
L 251.282815 186.242215 
L 252.330437 189.662366 
L 253.116154 191.676222 
L 253.90187 193.164426 
L 254.687587 194.092327 
L 255.211398 194.388416 
L 255.735209 194.422508 
L 256.25902 194.194228 
L 256.782831 193.705906 
L 257.306642 192.962562 
L 258.092358 191.386825 
L 258.878075 189.291624 
L 259.925696 185.775593 
L 261.235224 180.428946 
L 263.068562 171.799558 
L 266.211428 156.844409 
L 267.520955 151.657101 
L 268.568577 148.311824 
L 269.354294 146.367226 
L 270.14001 144.958625 
L 270.663821 144.334277 
L 271.187632 143.969623 
L 271.711443 143.868277 
L 272.235254 144.03095 
L 272.759065 144.455412 
L 273.282876 145.136481 
L 274.068593 146.620673 
L 274.854309 148.623775 
L 275.901931 152.007398 
L 277.211458 157.147459 
L 279.306702 166.513765 
L 281.401946 175.574283 
L 282.449568 179.340562 
L 283.49719 182.26012 
L 284.282906 183.754692 
L 284.806717 184.371079 
L 285.330528 184.656462 
L 285.854339 184.590503 
L 286.37815 184.155626 
L 286.901961 183.337218 
L 287.425772 182.123823 
L 288.211489 179.546247 
L 288.997205 176.049571 
L 289.782922 171.639067 
L 290.830544 164.380642 
L 292.140071 153.254547 
L 293.449598 140.164695 
L 295.282937 119.434702 
L 299.997235 64.489161 
L 301.306763 52.003773 
L 302.354385 43.756723 
L 303.402007 37.374045 
L 304.187723 33.959413 
L 304.711534 32.384474 
L 305.235345 31.394722 
L 305.759156 31.006335 
L 306.021062 31.041598 
L 306.282967 31.231415 
L 306.806778 32.077861 
L 307.330589 33.549278 
L 307.8544 35.644915 
L 308.640116 39.946373 
L 309.425833 45.604094 
L 310.473455 55.155356 
L 311.521077 66.820414 
L 312.830604 83.982785 
L 314.402037 107.54257 
L 317.282997 155.079408 
L 319.902052 197.091884 
L 321.473485 219.061022 
L 322.783013 234.489443 
L 323.830634 244.573038 
L 324.878256 252.435569 
L 325.663973 256.795591 
L 326.449689 259.804309 
L 326.9735 261.055054 
L 327.497311 261.704964 
L 327.759217 261.806791 
L 328.021122 261.76155 
L 328.283028 261.570823 
L 328.806839 260.760483 
L 329.33065 259.393327 
L 330.116366 256.346113 
L 330.902083 252.18132 
L 331.949704 245.069131 
L 333.259232 234.074614 
L 334.830665 218.622456 
L 340.854491 156.739452 
L 342.164018 146.519019 
L 343.21164 139.841045 
L 344.259262 134.615501 
L 345.044979 131.68253 
L 345.830695 129.597418 
L 346.354506 128.670881 
L 346.878317 128.105082 
L 347.402128 127.887816 
L 347.925939 128.003895 
L 348.44975 128.435342 
L 348.973561 129.161602 
L 349.759277 130.753101 
L 350.544994 132.870114 
L 351.592616 136.346328 
L 353.164049 142.468914 
L 356.045009 153.980917 
L 357.354536 158.267904 
L 358.402158 160.903846 
L 359.187875 162.32049 
L 359.973591 163.205176 
L 360.497402 163.483303 
L 361.021213 163.504948 
L 361.545024 163.267222 
L 362.068835 162.770126 
L 362.592646 162.016516 
L 363.378362 160.418266 
L 364.164079 158.286701 
L 365.211701 154.691644 
L 366.521228 149.182817 
L 368.354567 140.181313 
L 372.021243 121.706161 
L 373.330771 116.273528 
L 374.378393 112.755211 
L 375.164109 110.688696 
L 375.949826 109.160938 
L 376.735542 108.201912 
L 377.259353 107.887358 
L 377.783164 107.834919 
L 378.306975 108.043491 
L 378.830786 108.509264 
L 379.354597 109.225755 
L 380.140313 110.750005 
L 380.92603 112.776103 
L 381.973652 116.164968 
L 383.283179 121.283127 
L 385.378423 130.638487 
L 387.735572 141.026681 
L 389.0451 145.887794 
L 390.092722 148.989447 
L 390.878438 150.754503 
L 391.664155 151.980862 
L 392.187966 152.479704 
L 392.711777 152.713865 
L 393.235588 152.678221 
L 393.759399 152.370579 
L 394.28321 151.791737 
L 395.068926 150.424166 
L 395.854642 148.481348 
L 396.902264 145.068502 
L 397.949886 140.84297 
L 399.521319 133.379227 
L 403.711807 112.54241 
L 404.759429 108.564392 
L 405.545145 106.237475 
L 406.330862 104.584671 
L 406.854673 103.901979 
L 407.378484 103.58252 
L 407.902295 103.647248 
L 408.426106 104.114232 
L 408.949917 104.998447 
L 409.473728 106.311585 
L 410.259444 109.102601 
L 411.045161 112.889099 
L 411.830877 117.664985 
L 412.878499 125.525542 
L 413.926121 134.985509 
L 415.235648 148.794021 
L 417.068987 170.986025 
L 422.830907 243.876949 
L 424.140435 256.7277 
L 425.188057 265.014659 
L 425.973773 269.885468 
L 426.75949 273.496695 
L 427.2833 275.165775 
L 427.807111 276.22277 
L 428.330922 276.653985 
L 428.592828 276.631801 
L 428.854733 276.449965 
L 429.378544 275.605597 
L 429.902355 274.120166 
L 430.426166 271.997381 
L 431.211883 267.637141 
L 431.997599 261.907956 
L 433.045221 252.258732 
L 434.092843 240.51282 
L 435.40237 223.303178 
L 437.235709 195.668842 
L 443.259535 100.699741 
L 444.569062 84.211559 
L 445.87859 70.595735 
L 446.926212 62.045751 
L 447.711928 57.093241 
L 448.497645 53.429714 
L 449.021456 51.709603 
L 449.545267 50.565441 
L 450.069078 49.990981 
L 450.330983 49.914329 
L 450.592889 49.975934 
L 451.1167 50.50609 
L 451.64051 51.563484 
L 452.164321 53.126577 
L 452.950038 56.364087 
L 453.735754 60.585792 
L 454.783376 67.552871 
L 456.092904 77.995469 
L 457.926242 94.720919 
L 461.854824 131.183242 
L 463.426257 143.285798 
L 464.735785 151.445739 
L 465.783407 156.518645 
L 466.569123 159.423187 
L 467.354839 161.543575 
L 467.87865 162.524399 
L 468.402461 163.165824 
L 468.926272 163.477253 
L 469.450083 163.471102 
L 469.973894 163.162632 
L 470.497705 162.569757 
L 471.283422 161.192328 
L 472.069138 159.299057 
L 473.11676 156.123669 
L 474.688193 150.428315 
L 477.831059 138.635032 
L 479.140586 134.716022 
L 480.188208 132.379327 
L 480.973925 131.186982 
L 481.497736 130.684483 
L 482.021547 130.427606 
L 482.545358 130.423277 
L 483.069169 130.675604 
L 483.592979 131.185866 
L 484.11679 131.952513 
L 484.902507 133.572977 
L 485.688223 135.733892 
L 486.735845 139.386583 
L 488.045373 145.010216 
L 489.616806 152.887316 
L 494.331104 177.410409 
L 495.640632 182.710184 
L 496.688254 186.043909 
L 497.47397 187.93811 
L 498.259687 189.273984 
L 498.783498 189.843524 
L 499.307308 190.152515 
L 499.831119 190.200828 
L 500.35493 189.991065 
L 500.878741 189.528539 
L 501.402552 188.821225 
L 502.188269 187.325079 
L 502.973985 185.348572 
L 504.021607 182.067161 
L 505.331135 177.163596 
L 508.212095 165.075465 
L 509.783528 158.997425 
L 510.83115 155.612286 
L 511.878772 152.978808 
L 512.664488 151.591559 
L 513.188299 150.976848 
L 513.71211 150.625039 
L 514.235921 150.545786 
L 514.759732 150.745893 
L 515.283543 151.229211 
L 515.807354 151.996553 
L 516.59307 153.674277 
L 517.378787 155.964384 
L 518.426409 159.905254 
L 519.474031 164.740155 
L 521.045464 173.280398 
L 526.021668 201.768096 
L 527.06929 206.114444 
L 527.855006 208.605986 
L 528.640723 210.326498 
L 529.164534 211.000562 
L 529.688345 211.268788 
L 530.212156 211.110838 
L 530.735967 210.509487 
L 531.259778 209.450822 
L 531.783588 207.924418 
L 532.569305 204.743962 
L 533.355021 200.489665 
L 534.402643 193.171335 
L 535.450265 184.052761 
L 536.759793 170.350533 
L 538.331226 151.089729 
L 540.426469 122.227356 
L 544.093146 71.012862 
L 545.664579 52.157905 
L 546.974107 39.166403 
L 548.021728 30.98515 
L 548.807445 26.305052 
L 549.593161 22.965986 
L 550.116972 21.516548 
L 550.640783 20.704441 
L 550.902689 20.540342 
L 551.164594 20.538574 
L 551.4265 20.699562 
L 551.950311 21.51012 
L 552.474122 22.969853 
L 552.997933 25.072147 
L 553.783649 29.405103 
L 554.569366 35.102675 
L 555.616987 44.687388 
L 556.664609 56.325427 
L 557.974137 73.314401 
L 559.807475 100.439785 
L 565.569396 188.694287 
L 566.878923 204.807986 
L 568.188451 218.170857 
L 569.236073 226.622337 
L 570.021789 231.569406 
L 570.807506 235.29132 
L 571.593222 237.781558 
L 572.117033 238.763592 
L 572.640844 239.213232 
L 572.902749 239.242316 
L 573.164655 239.143462 
L 573.688466 238.57094 
L 574.212277 237.515813 
L 574.736088 236.001503 
L 575.521804 232.927728 
L 576.307521 228.981735 
L 577.355143 222.559738 
L 578.66467 213.082083 
L 580.759914 196.016239 
L 583.640874 172.814598 
L 585.212307 162.130931 
L 586.259929 156.254353 
L 587.307551 151.544333 
L 588.093267 148.832326 
L 588.878984 146.844741 
L 589.402795 145.923259 
L 589.926606 145.320684 
L 590.450417 145.030086 
L 590.974228 145.041512 
L 591.498039 145.342131 
L 592.02185 145.916405 
L 592.807566 147.250788 
L 593.593283 149.089325 
L 594.640905 152.185084 
L 595.950432 156.790233 
L 599.879014 171.212179 
L 600.926636 174.165277 
L 601.712353 175.906062 
L 602.498069 177.173837 
L 603.02188 177.732528 
L 603.545691 178.049157 
L 604.069502 178.115701 
L 604.593313 177.926882 
L 605.117124 177.480204 
L 605.640935 176.775957 
L 606.426651 175.244091 
L 607.212368 173.161966 
L 608.25999 169.591921 
L 609.307612 165.223095 
L 610.879045 157.506856 
L 613.760005 141.667335 
L 615.855249 130.813822 
L 617.164776 125.116474 
L 618.212398 121.421703 
L 618.998115 119.2371 
L 619.783831 117.598353 
L 620.569547 116.530446 
L 621.093358 116.141879 
L 621.617169 116.012393 
L 622.14098 116.139221 
L 622.664791 116.516861 
L 623.188602 117.137116 
L 623.974319 118.49804 
L 624.760035 120.332874 
L 625.807657 123.41331 
L 627.117185 128.04154 
L 631.831483 145.775039 
L 632.879105 148.585042 
L 633.664822 150.147815 
L 634.450538 151.169423 
L 634.974349 151.522499 
L 635.49816 151.597739 
L 636.021971 151.385007 
L 636.545782 150.877074 
L 637.069593 150.069736 
L 637.855309 148.295831 
L 638.641026 145.856314 
L 639.688648 141.615452 
L 640.73627 136.345111 
L 642.045797 128.548528 
L 643.879135 116.113011 
L 647.022001 94.450897 
L 648.331529 86.869099 
L 649.379151 81.998228 
L 650.164867 79.220048 
L 650.950584 77.305712 
L 651.474394 76.553983 
L 651.998205 76.248986 
L 652.260111 76.270323 
L 652.783922 76.671494 
L 653.307733 77.56257 
L 653.831544 78.95468 
L 654.61726 81.997372 
L 655.402977 86.191605 
L 656.188693 91.525775 
L 657.236315 100.353115 
L 658.283937 111.016617 
L 659.593464 126.629574 
L 661.164897 148.040152 
L 663.783952 187.314027 
L 666.403007 225.880052 
L 667.97444 246.10754 
L 669.283967 260.1991 
L 670.331589 269.229704 
L 671.117306 274.529411 
L 671.903022 278.474259 
L 672.426833 280.320568 
L 672.950644 281.524546 
L 673.474455 282.077844 
L 673.736361 282.109091 
L 673.998266 281.976548 
L 674.522077 281.221205 
L 675.045888 279.816826 
L 675.569699 277.772841 
L 676.355415 273.538907 
L 677.141132 267.962099 
L 678.188754 258.586301 
L 679.236376 247.227218 
L 680.545903 230.705202 
L 682.379242 204.480319 
L 687.617351 127.314657 
L 689.188784 108.510648 
L 690.498312 95.688512 
L 691.545933 87.5561 
L 692.33165 82.773047 
L 693.117366 79.144719 
L 693.903083 76.672946 
L 694.426894 75.659486 
L 694.950705 75.142259 
L 695.21261 75.06556 
L 695.474516 75.10747 
L 695.998327 75.537841 
L 696.522138 76.4128 
L 697.045949 77.70871 
L 697.831665 80.383259 
L 698.617382 83.844996 
L 699.665003 89.492838 
L 700.974531 97.808441 
L 703.593586 116.384863 
L 705.68883 130.57998 
L 706.998357 138.149008 
L 708.045979 143.164622 
L 709.093601 147.102984 
L 709.879317 149.294359 
L 710.665034 150.810001 
L 711.188845 151.443153 
L 711.712656 151.777787 
L 712.236467 151.820191 
L 712.760278 151.579608 
L 713.284089 151.068102 
L 714.069805 149.82576 
L 714.855522 148.067499 
L 715.903143 145.044463 
L 717.212671 140.449674 
L 721.92697 122.785263 
L 722.974592 119.946152 
L 723.760308 118.32441 
L 724.546024 117.198572 
L 725.069835 116.744557 
L 725.593646 116.538766 
L 726.117457 116.587616 
L 726.641268 116.894795 
L 727.165079 117.461239 
L 727.950796 118.792309 
L 728.736512 120.684458 
L 729.522229 123.106882 
L 730.569851 127.085168 
L 731.879378 133.067137 
L 733.712716 142.725912 
L 737.379393 162.535322 
L 738.688921 168.461353 
L 739.736542 172.383644 
L 740.784164 175.434679 
L 741.569881 177.093149 
L 742.355597 178.183111 
L 742.879408 178.587869 
L 743.403219 178.734911 
L 743.92703 178.627191 
L 744.450841 178.270438 
L 744.974652 177.67311 
L 745.760369 176.35108 
L 746.546085 174.561641 
L 747.593707 171.554375 
L 748.903234 167.043803 
L 753.355628 150.879484 
L 754.40325 148.180705 
L 755.188966 146.711031 
L 755.712777 146.036436 
L 756.236588 145.628199 
L 756.760399 145.50263 
L 757.28421 145.673394 
L 757.808021 146.151335 
L 758.331832 146.944326 
L 759.117548 148.73411 
L 759.903265 151.245318 
L 760.688981 154.463895 
L 761.736603 159.800044 
L 763.046131 167.973618 
L 764.617563 179.524194 
L 767.760429 205.129399 
L 769.593768 219.034446 
L 770.903295 227.319292 
L 771.950917 232.508538 
L 772.736633 235.384076 
L 773.260444 236.761219 
L 773.784255 237.676046 
L 774.308066 238.105934 
L 774.569972 238.132858 
L 774.831877 238.031577 
L 775.355688 237.437191 
L 775.879499 236.310693 
L 776.40331 234.643851 
L 777.189027 231.122223 
L 777.974743 226.378953 
L 779.022365 218.198087 
L 780.069987 208.003143 
L 781.379514 192.7024 
L 782.950947 171.235156 
L 785.046191 139.113928 
L 788.974773 78.1369 
L 790.546206 57.293451 
L 791.855734 42.83794 
L 792.903356 33.596358 
L 793.689072 28.174213 
L 794.474789 24.12847 
L 794.9986 22.222464 
L 795.522411 20.961621 
L 796.046221 20.351468 
L 796.308127 20.290909 
L 796.570032 20.393076 
L 796.831938 20.657406 
L 797.355749 21.66893 
L 797.87956 23.315499 
L 798.665276 26.943679 
L 799.450993 31.901952 
L 800.498615 40.431531 
L 801.546237 50.919114 
L 802.855764 66.318023 
L 804.689102 90.921388 
L 809.927212 163.54462 
L 811.498645 181.19418 
L 812.808172 193.200345 
L 813.855794 200.799014 
L 814.641511 205.261423 
L 815.427227 208.643999 
L 816.212944 210.950154 
L 816.736755 211.89995 
L 817.260566 212.392221 
L 817.784377 212.441665 
L 818.308188 212.066265 
L 818.831999 211.287078 
L 819.35581 210.128007 
L 820.141526 207.735718 
L 820.927242 204.647768 
L 821.974864 199.636868 
L 823.546297 190.77145 
L 827.736785 165.999778 
L 829.046312 159.826797 
L 830.093934 155.898704 
L 830.879651 153.627404 
L 831.665367 151.974495 
L 831.927273 151.564688 
L 831.927273 151.564688 
" clip-path="url(#pfa17784fe4)" style="fill: none; stroke: #8a2be2; stroke-width: 1.5; stroke-linecap: square"/>
   </g>
  </g>
 </g>
 <defs>
  <clipPath id="pfa17784fe4">
   <rect x="7.2" y="7.2" width="864" height="288"/>
  </clipPath>
 </defs>
</svg>
